<svg width="46" height="59" viewBox="0 0 46 59" fill="none" xmlns="http://www.w3.org/2000/svg">
<g id="image 3 1" clip-path="url(#clip0_1_441)">
<path id="Vector" d="M21.56 0H25.08C32.2667 0.746667 38.0367 4.05333 42.39 9.92C42.6233 10.2333 42.6 10.5267 42.32 10.8L39.16 13.96C38.86 14.26 38.5967 14.2333 38.37 13.88C26.74 -3.94 -0.54 9.52 6.33 28.99C8.73 35.82 17.67 44.06 22.82 49.83C22.8829 49.9005 22.9599 49.9568 23.0461 49.9955C23.1322 50.0341 23.2256 50.054 23.32 50.054C23.4144 50.054 23.5078 50.0341 23.5939 49.9955C23.6801 49.9568 23.7571 49.9005 23.82 49.83C28.4667 44.6167 33.1467 39.3733 37.86 34.1C39.93 31.79 43.12 32.22 43.3 35.63C43.3125 35.9314 43.2086 36.2253 43.01 36.45L23.58 58.37C23.5434 58.4107 23.4987 58.4432 23.4487 58.4655C23.3988 58.4877 23.3447 58.4992 23.29 58.4992C23.2353 58.4992 23.1812 58.4877 23.1313 58.4655C23.0813 58.4432 23.0366 58.4107 23 58.37C17.1733 51.81 11.3967 45.1933 5.67 38.52C2.08 34.33 0.6 30.37 0 25.18V21.44C1.9 9 9.08667 1.85333 21.56 0Z" fill="white"/>
<path id="Vector_2" d="M45.49 18.55L26.67 38.56C26.43 38.82 26.19 38.82 25.95 38.56C23.21 35.52 20.5567 32.5133 17.99 29.54C15.3 26.44 19.01 22.79 22.02 25.98C23.4 27.44 24.7733 28.91 26.14 30.39C26.38 30.65 26.62 30.65 26.86 30.39L43.15 13.13C43.73 12.5166 44.1467 12.6133 44.4 13.42L45.71 17.59C45.8233 17.95 45.75 18.27 45.49 18.55Z" fill="white"/>
</g>
<defs>
<clipPath id="clip0_1_441">
<rect width="46" height="59" fill="white"/>
</clipPath>
</defs>
</svg>
