<svg width="19" height="19" viewBox="0 0 19 19" fill="none" xmlns="http://www.w3.org/2000/svg">
<g id="user">
<path id="Vector" d="M5.20725 12.2563C4.08722 12.9232 1.15058 14.2849 2.93919 15.989C3.81291 16.8213 4.78602 17.4167 6.00944 17.4167H12.9905C14.214 17.4167 15.1871 16.8213 16.0608 15.989C17.8494 14.2849 14.9128 12.9232 13.7927 12.2563C11.1663 10.6923 7.83369 10.6923 5.20725 12.2563Z" stroke="white" stroke-linecap="round" stroke-linejoin="round"/>
<path id="Vector_2" d="M13.0625 5.14581C13.0625 7.11333 11.4675 8.70831 9.5 8.70831C7.53249 8.70831 5.9375 7.11333 5.9375 5.14581C5.9375 3.1783 7.53249 1.58331 9.5 1.58331C11.4675 1.58331 13.0625 3.1783 13.0625 5.14581Z" stroke="white"/>
</g>
</svg>
